<?xml version="1.0" encoding="utf-8"?>
<!-- Generator: Adobe Illustrator 16.0.0, SVG Export Plug-In . SVG Version: 6.00 Build 0)  -->
<!DOCTYPE svg PUBLIC "-//W3C//DTD SVG 1.1//EN" "http://www.w3.org/Graphics/SVG/1.1/DTD/svg11.dtd">
<svg version="1.1" id="Layer_1" xmlns="http://www.w3.org/2000/svg" xmlns:xlink="http://www.w3.org/1999/xlink" x="0px" y="0px"
	 width="841.89px" height="595.28px" viewBox="0 0 841.89 595.28" enable-background="new 0 0 841.89 595.28" xml:space="preserve">
<g>
	<g>
		<path d="M155.407,189.85v25.793h-47.941v119.875H73.768V215.643H25.609V189.85H155.407z"/>
		<path d="M248.429,228.395c5.953,2.307,10.84,5.835,14.668,10.583c3.248,4.025,5.23,8.161,5.95,12.414
			c0.723,4.253,1.086,11.194,1.086,20.82v63.306H238.5v-65.595c0-5.803-1.083-10.487-3.24-14.049
			c-2.804-5.012-8.127-7.519-15.968-7.519c-8.131,0-14.301,2.49-18.509,7.471c-4.207,4.979-6.311,12.085-6.311,21.32v58.373H163.49
			V190.344h30.982v51.389c4.474-6.258,9.649-10.625,15.532-13.094c5.879-2.472,12.067-3.707,18.563-3.707
			C235.853,224.932,242.478,226.088,248.429,228.395z"/>
		<rect x="281.302" y="189.817" fill="#A52671" width="31.415" height="28.442"/>
		<rect x="281.302" y="227.798" width="31.415" height="107.719"/>
		<path d="M419.87,233.976c7.759,5.829,11.636,15.499,11.636,29.003v72.538h-31.744v-65.521c0-5.666-0.824-10.014-2.478-13.044
			c-3.025-5.535-8.78-8.302-17.267-8.302c-10.434,0-17.591,4.052-21.477,12.156c-2.014,4.283-3.02,9.75-3.02,16.405v58.306h-30.984
			V227.996h30.003v15.713c3.971-5.533,7.725-9.519,11.258-11.957c6.35-4.349,14.399-6.523,24.142-6.523
			C402.134,225.229,412.111,228.144,419.87,233.976z"/>
		<path d="M445.271,190.344h30.436v78.58l39.076-40.631h38.523l-42.469,40.127l44.117,67.098H517.25l-28.709-46.024l-12.834,12.127
			v33.896h-30.436V190.344z"/>
		<rect x="445.271" y="189.817" width="30.41" height="0.668"/>
		<rect x="163.49" y="189.817" width="30.982" height="0.668"/>
		<g>
			<path fill="#A52671" d="M644.586,189.817v25.793h-47.943v119.874h-33.697V215.611h-48.156v-25.793H644.586z"/>
			<path fill="#A52671" d="M664.016,269.962c5.77-0.657,9.896-1.48,12.377-2.468c4.451-1.712,6.68-4.38,6.68-8.005
				c0-4.414-1.711-7.461-5.125-9.142c-3.414-1.68-8.426-2.52-15.041-2.52c-7.414,0-12.67,1.647-15.756,4.941
				c-2.203,2.439-3.672,5.732-4.41,9.883h-29.895c0.658-9.421,3.566-17.162,8.738-23.224c8.221-9.487,22.34-14.23,42.363-14.23
				c13.023,0,24.594,2.339,34.715,7.017c10.117,4.679,15.176,13.507,15.176,26.485v49.411c0,3.428,0.072,7.578,0.217,12.451
				c0.219,3.691,0.834,6.195,1.85,7.51c1.01,1.32,2.533,2.408,4.564,3.264v4.15h-33.697c-0.947-2.172-1.598-4.215-1.959-6.127
				c-0.363-1.912-0.652-4.086-0.871-6.521c-4.297,4.215-9.26,7.805-14.869,10.77c-6.705,3.492-14.289,5.24-22.744,5.24
				c-10.791,0-19.699-2.785-26.732-8.352c-7.037-5.568-10.551-13.455-10.551-23.67c0-13.241,5.656-22.829,16.975-28.759
				c6.205-3.227,15.328-5.534,27.377-6.917L664.016,269.962z M682.961,283.107c-1.982,1.122-3.982,2.028-6.006,2.718
				c-2.021,0.692-4.793,1.331-8.318,1.925l-7.053,1.187c-6.607,1.057-11.357,2.339-14.242,3.856
				c-4.881,2.569-7.314,6.554-7.314,11.957c0,4.811,1.486,8.285,4.467,10.428c2.982,2.141,6.604,3.209,10.875,3.209
				c6.77,0,13.002-1.779,18.707-5.338c5.705-3.557,8.668-10.043,8.885-19.465V283.107z"/>
			<path fill="#A52671" d="M800.744,266.407c-0.586-4.019-2.072-7.643-4.467-10.872c-3.492-4.348-8.9-6.522-16.238-6.522
				c-10.465,0-17.619,4.711-21.467,14.131c-2.035,4.996-3.051,11.633-3.051,19.912c0,7.889,1.016,14.229,3.051,19.025
				c3.703,8.959,10.676,13.439,20.922,13.439c7.268,0,12.422-1.777,15.475-5.336c3.049-3.559,4.908-8.168,5.557-13.835h31.631
				c-0.723,8.564-4.135,16.667-10.223,24.312c-9.729,12.318-24.125,18.479-43.201,18.479s-33.117-5.139-42.115-15.418
				c-8.994-10.277-13.49-23.604-13.49-39.974c0-18.479,4.971-32.858,14.908-43.136c9.936-10.277,23.645-15.416,41.131-15.416
				c14.873,0,27.041,3.031,36.51,9.092c9.463,6.063,15.07,16.767,16.809,32.119H800.744z"/>
		</g>
	</g>
	<text transform="matrix(1.1208 0 0 1 330.2339 365.4766)"><tspan x="0" y="0" font-family="'HelveticaNeueLTPro-Md'" font-size="22.7872">TACTILE</tspan><tspan x="77.225" y="0" fill="#A52671" font-family="'HelveticaNeueLTPro-Md'" font-size="22.7872"> | </tspan><tspan x="92.332" y="0" font-family="'HelveticaNeueLTPro-Md'" font-size="22.7872">FUN-FILLED </tspan><tspan x="209.434" y="0" fill="#A52671" font-family="'HelveticaNeueLTPro-Md'" font-size="22.7872">| </tspan><tspan x="219.71" y="0" font-family="'HelveticaNeueLTPro-Md'" font-size="22.7872">EDUCATOR FACILITATED</tspan></text>
</g>
</svg>
